{"title":"The Block - S12E23 - Budget Blues","uid":15961582,"size":389112499,"categoryP":"video","categoryS":"tv_shows","magnet":"?xt=urn:btih:c079ad0f6934806b9cf54a93e2309ecc1d1c818a&amp;dn=The+Block+-+S12E23+-+Budget+Blues&amp;tr=udp%3A%2F%2Ftracker.leechers-paradise.org%3A6969&amp;tr=udp%3A%2F%2Fzer0day.ch%3A1337&amp;tr=udp%3A%2F%2Fopen.demonii.com%3A1337&amp;tr=udp%3A%2F%2Ftracker.coppersurfer.tk%3A6969&amp;tr=udp%3A%2F%2Fexodus.desync.com%3A6969","seeders":3,"leechers":1,"uploader":"Bullrout","files":1,"time":1475668732,"description":"The Block - S12E23 - Budget Blues\r\n\r\nAs the week continues everyone is feeling the budget squeeze, and it goes from bad to worse for one team who are fined $2000 for using power tools after hours. The roof top garden is in full swing and taking shape under fore girl Kim.\r\n\r\nComplete name : The Block - S12E23 - Budget Blues.mp4\r\nFormat : MPEG-4\r\nFormat profile : Base Media / Version 2\r\nCodec ID : mp42 (mp42/isom/avc1)\r\nFile size : 371 MiB\r\nDuration : 47 min 0 s\r\nOverall bit rate mode : Variable\r\nOverall bit rate : 1 104 kb/s\r\n\r\nVideo\r\nID : 2\r\nFormat : AVC\r\nFormat/Info : Advanced Video Codec\r\nFormat profile :   \r\nFormat settings, CABAC : Yes\r\nFormat settings, ReFrames : 3 frames\r\nCodec ID : avc1\r\nCodec ID/Info : Advanced Video Coding\r\nDuration : 47 min 0 s\r\nBit rate mode : Variable\r\nBit rate : 972 kb/s\r\nMaximum bit rate : 1 000 kb/s\r\nWidth : 720 pixels\r\nHeight : 404 pixels\r\nDisplay aspect ratio : 16:9\r\nOriginal display aspect ratio : 16:9\r\nFrame rate mode : Constant\r\nFrame rate : 25.000 FPS\r\nStandard : PAL\r\nColor space : YUV\r\nChroma subsampling : 4:2:0\r\nBit depth : 8 bits\r\nScan type : Progressive\r\nBits/(Pixel*Frame) : 0.134\r\nStream size : 327 MiB (88%)\r\nWriting library : x264 core 112\r\nColor range : Limited\r\nColor primaries : BT.601 PAL\r\nTransfer characteristics : BT.470 System B, BT.470 System G\r\nMatrix coefficients : BT.601\r\n\r\nAudio\r\nID : 1\r\nFormat : AAC\r\nFormat/Info : Advanced Audio Codec\r\nFormat profile : LC\r\nCodec ID : 40\r\nDuration : 47 min 0 s\r\nBit rate mode : Variable\r\nBit rate : 128 kb/s\r\nMaximum bit rate : 576 kb/s\r\nChannel(s) : 2 channels\r\nChannel positions : Front: L R\r\nSampling rate : 48.0 kHz\r\nFrame rate : 46.875 FPS (1024 spf)\r\nCompression mode : Lossy\r\nStream size : 43.0 MiB (12%)","torrent":{"xt":"urn:btih:c079ad0f6934806b9cf54a93e2309ecc1d1c818a","amp;dn":"The+Block+-+S12E23+-+Budget+Blues","amp;tr":["udp%3A%2F%2Ftracker.leechers-paradise.org%3A6969","udp%3A%2F%2Fzer0day.ch%3A1337","udp%3A%2F%2Fopen.demonii.com%3A1337","udp%3A%2F%2Ftracker.coppersurfer.tk%3A6969","udp%3A%2F%2Fexodus.desync.com%3A6969"],"infoHash":"c079ad0f6934806b9cf54a93e2309ecc1d1c818a","infoHashBuffer":{"type":"Buffer","data":[192,121,173,15,105,52,128,107,156,245,74,147,226,48,158,204,29,28,129,138]},"announce":[],"urlList":[]}}